ffmpeg started on 2025-06-27 at 10:30:40
Report written to "D:\Convert\FFMetrics\reports\ssim_report-6.txt"
Log level: 32
Command line:
ffmpeg -hide_banner -nostdin -i "G:\\\xc0\xed\xe8\xec\xe5\\[\xd2\xee\xef-4]\\\xd2\xee\xea\xe8\xe9\xf1\xea\xe8\xe9 \xc3\xf3\xeb\xfc\\\xd2\xc2-4\\Tokyo_Ghoul_Re_[21]_[AniLibria_TV]_[HDTVRip_720p]_HEVC.mkv" -i "G:\\\xc0\xed\xe8\xec\xe5\\[\xd2\xee\xef-4]\\\xd2\xee\xea\xe8\xe9\xf1\xea\xe8\xe9 \xc3\xf3\xeb\xfc\\\xd2\xc2-4\\Tokyo_Ghoul_Re_[21]_[AniLibria_TV]_[HDTVRip_720p].mkv" -lavfi "[0:v]settb=AVTB,setpts=PTS-STARTPTS,format=pix_fmts=yuv420p10,fps=24000/1001,scale=1280:720:flags=bicubic[main];[1:v]settb=AVTB,setpts=PTS-STARTPTS,format=pix_fmts=yuv420p,fps=24000/1001,scale=1280:720:flags=bicubic[ref];[main][ref]ssim=eof_action=endall:stats_file='D\\:/Convert/FFMetrics/logs/ssim_logfile-6.txt'" -f null -
Input #0, matroska,webm, from 'G:\Аниме\[Топ-4]\Токийский Гуль\ТВ-4\Tokyo_Ghoul_Re_[21]_[AniLibria_TV]_[HDTVRip_720p]_HEVC.mkv':
  Metadata:
    ENCODER         : Lavf61.7.100
  Duration: 00:24:30.10, start: -0.021000, bitrate: 689 kb/s
  Stream #0:0(jpn): Video: hevc (Main 10), yuv420p10le(tv, bt709, progressive), 1280x720 [SAR 1:1 DAR 16:9], 23.98 fps, 23.98 tbr, 1k tbn (default)
      Metadata:
        ENCODER         : Lavc61.19.100 libx265
        BPS             : 490177
        DURATION        : 00:24:30.010708333
        NUMBER_OF_FRAMES: 35245
        NUMBER_OF_BYTES : 90070802
        _STATISTICS_WRITING_APP: mkvpropedit v66.0.0 ('Josie') 64-bit
        _STATISTICS_WRITING_DATE_UTC: 2025-06-26 16:23:39
        _STATISTICS_TAGS: BPS DURATION NUMBER_OF_FRAMES NUMBER_OF_BYTES
  Stream #0:1(rus): Audio: aac (LC), 48000 Hz, stereo, fltp (default) (forced)
      Metadata:
        title           : AniLibria.TV
        ENCODER         : Lavc61.19.100 aac
        BPS             : 194725
        DURATION        : 00:24:30.079000000
        NUMBER_OF_FRAMES: 68911
        NUMBER_OF_BYTES : 35782748
        _STATISTICS_WRITING_APP: mkvpropedit v66.0.0 ('Josie') 64-bit
        _STATISTICS_WRITING_DATE_UTC: 2025-06-26 16:23:39
        _STATISTICS_TAGS: BPS DURATION NUMBER_OF_FRAMES NUMBER_OF_BYTES
  Stream #0:2(rus): Subtitle: ass (ssa) (default) (forced)
      Metadata:
        title           : Надписи
        BPS             : 15
        DURATION        : 00:22:14.890000000
        NUMBER_OF_FRAMES: 17
        NUMBER_OF_BYTES : 2583
        _STATISTICS_WRITING_APP: mkvpropedit v66.0.0 ('Josie') 64-bit
        _STATISTICS_WRITING_DATE_UTC: 2025-06-26 16:23:39
        _STATISTICS_TAGS: BPS DURATION NUMBER_OF_FRAMES NUMBER_OF_BYTES
  Stream #0:3(rus): Subtitle: ass (ssa)
      Metadata:
        title           : Полные
        BPS             : 131
        DURATION        : 00:23:44.630000000
        NUMBER_OF_FRAMES: 332
        NUMBER_OF_BYTES : 23356
        _STATISTICS_WRITING_APP: mkvpropedit v66.0.0 ('Josie') 64-bit
        _STATISTICS_WRITING_DATE_UTC: 2025-06-26 16:23:39
        _STATISTICS_TAGS: BPS DURATION NUMBER_OF_FRAMES NUMBER_OF_BYTES
[matroska,webm @ 000002b59ecc7b00] Could not find codec parameters for stream 18 (Attachment: none): unknown codec
Consider increasing the value for the 'analyzeduration' (0) and 'probesize' (5000000) options
Input #1, matroska,webm, from 'G:\Аниме\[Топ-4]\Токийский Гуль\ТВ-4\Tokyo_Ghoul_Re_[21]_[AniLibria_TV]_[HDTVRip_720p].mkv':
  Metadata:
    encoder         : libebml v1.4.2 + libmatroska v1.6.4
    creation_time   : 2024-12-27T09:50:17.000000Z
  Duration: 00:24:30.08, start: 0.000000, bitrate: 1980 kb/s
  Stream #1:0(jpn): Video: h264 (Main), yuv420p(tv, bt709, progressive), 1280x720, SAR 1:1 DAR 16:9, 23.98 fps, 23.98 tbr, 1k tbn (default)
      Metadata:
        BPS             : 1774537
        DURATION        : 00:24:30.011000000
        NUMBER_OF_FRAMES: 35245
        NUMBER_OF_BYTES : 326073670
        _STATISTICS_WRITING_APP: mkvmerge v66.0.0 ('Josie') 64-bit
        _STATISTICS_WRITING_DATE_UTC: 2024-12-27 09:50:17
        _STATISTICS_TAGS: BPS DURATION NUMBER_OF_FRAMES NUMBER_OF_BYTES
  Stream #1:1(rus): Audio: aac (LC), 48000 Hz, stereo, fltp (default) (forced)
      Metadata:
        title           : AniLibria.TV
        BPS             : 192093
        DURATION        : 00:24:30.079000000
        NUMBER_OF_FRAMES: 68910
        NUMBER_OF_BYTES : 35299083
        _STATISTICS_WRITING_APP: mkvmerge v66.0.0 ('Josie') 64-bit
        _STATISTICS_WRITING_DATE_UTC: 2024-12-27 09:50:17
        _STATISTICS_TAGS: BPS DURATION NUMBER_OF_FRAMES NUMBER_OF_BYTES
  Stream #1:2(rus): Subtitle: ass (ssa) (default) (forced)
      Metadata:
        title           : Надписи
        BPS             : 15
        DURATION        : 00:22:14.890000000
        NUMBER_OF_FRAMES: 17
        NUMBER_OF_BYTES : 2583
        _STATISTICS_WRITING_APP: mkvmerge v66.0.0 ('Josie') 64-bit
        _STATISTICS_WRITING_DATE_UTC: 2024-12-27 09:50:17
        _STATISTICS_TAGS: BPS DURATION NUMBER_OF_FRAMES NUMBER_OF_BYTES
  Stream #1:3(rus): Subtitle: ass (ssa)
      Metadata:
        title           : Полные
        BPS             : 131
        DURATION        : 00:23:44.630000000
        NUMBER_OF_FRAMES: 332
        NUMBER_OF_BYTES : 23356
        _STATISTICS_WRITING_APP: mkvmerge v66.0.0 ('Josie') 64-bit
        _STATISTICS_WRITING_DATE_UTC: 2024-12-27 09:50:17
        _STATISTICS_TAGS: BPS DURATION NUMBER_OF_FRAMES NUMBER_OF_BYTES
  Stream #1:4: Attachment: ttf
      Metadata:
        filename        : 10322__2.ttf
        mimetype        : application/x-truetype-font
  Stream #1:5: Attachment: ttf
      Metadata:
        filename        : 10352__0.ttf
        mimetype        : application/x-truetype-font
  Stream #1:6: Attachment: ttf
      Metadata:
        filename        : Aero Matics Display Bold Italic.ttf
        mimetype        : application/x-truetype-font
  Stream #1:7: Attachment: ttf
      Metadata:
        filename        : Aero Matics Display Bold.ttf
        mimetype        : application/x-truetype-font
  Stream #1:8: Attachment: ttf
      Metadata:
        filename        : Aero Matics Display Italic.ttf
        mimetype        : application/x-truetype-font
  Stream #1:9: Attachment: ttf
      Metadata:
        filename        : Aero Matics Display Light Italic.ttf
        mimetype        : application/x-truetype-font
  Stream #1:10: Attachment: ttf
      Metadata:
        filename        : Aero Matics Display Light.ttf
        mimetype        : application/x-truetype-font
  Stream #1:11: Attachment: ttf
      Metadata:
        filename        : Aero_Matics_Display_Regular.ttf
        mimetype        : application/x-truetype-font
  Stream #1:12: Attachment: ttf
      Metadata:
        filename        : BenchNine-Regular.ttf
        mimetype        : application/x-truetype-font
  Stream #1:13: Attachment: ttf
      Metadata:
        filename        : ObelixPro (Regular).ttf
        mimetype        : application/x-truetype-font
  Stream #1:14: Attachment: ttf
      Metadata:
        filename        : OHCRBRG.TTF
        mimetype        : application/x-truetype-font
  Stream #1:15: Attachment: ttf
      Metadata:
        filename        : OpenSanA.ttf
        mimetype        : application/x-truetype-font
  Stream #1:16: Attachment: ttf
      Metadata:
        filename        : Passing Notes.ttf
        mimetype        : application/x-truetype-font
  Stream #1:17: Attachment: ttf
      Metadata:
        filename        : REDOCTOB.otf
        mimetype        : application/x-truetype-font
  Stream #1:18: Attachment: none
      Metadata:
        filename        : simsun_0.ttc
        mimetype        : application/octet-stream
  Stream #1:19: Attachment: ttf
      Metadata:
        filename        : Snowstorm.ttf
        mimetype        : application/x-truetype-font
  Stream #1:20: Attachment: ttf
      Metadata:
        filename        : TEMPSITC.TTF
        mimetype        : application/x-truetype-font
  Stream #1:21: Attachment: ttf
      Metadata:
        filename        : TrajanPro3-Bold.otf
        mimetype        : application/x-truetype-font
  Stream #1:22: Attachment: ttf
      Metadata:
        filename        : TrajanPro3-Regular.otf
        mimetype        : application/x-truetype-font
  Stream #1:23: Attachment: ttf
      Metadata:
        filename        : v_BloodyMurder BB_v1.0.ttf
        mimetype        : application/x-truetype-font
  Stream #1:24: Attachment: ttf
      Metadata:
        filename        : v_CCTimSale_v1.11.ttf
        mimetype        : application/x-truetype-font
  Stream #1:25: Attachment: ttf
      Metadata:
        filename        : v_HolyMackerelli_v1.9.ttf
        mimetype        : application/x-truetype-font
  Stream #1:26: Attachment: ttf
      Metadata:
        filename        : v_StraightJacketBB_v1.1.ttf
        mimetype        : application/x-truetype-font
  Stream #1:27: Attachment: ttf
      Metadata:
        filename        : XENI.TTF
        mimetype        : application/x-truetype-font
Stream mapping:
  Stream #0:0 (hevc) -> settb:default
  Stream #1:0 (h264) -> settb:default
  ssim:default -> Stream #0:0 (wrapped_avframe)
  Stream #0:1 -> #0:1 (aac (native) -> pcm_s16le (native))
Output #0, null, to 'pipe:':
  Metadata:
    encoder         : Lavf61.7.100
  Stream #0:0: Video: wrapped_avframe, yuv420p10le(tv, bt709, progressive), 1280x720 [SAR 1:1 DAR 16:9], q=2-31, 200 kb/s, 23.98 fps, 23.98 tbn
      Metadata:
        encoder         : Lavc61.19.100 wrapped_avframe
  Stream #0:1(rus): Audio: pcm_s16le, 48000 Hz, stereo, s16, 1536 kb/s (default) (forced)
      Metadata:
        title           : AniLibria.TV
        _STATISTICS_TAGS: BPS DURATION NUMBER_OF_FRAMES NUMBER_OF_BYTES
        BPS             : 194725
        DURATION        : 00:24:30.079000000
        NUMBER_OF_FRAMES: 68911
        NUMBER_OF_BYTES : 35782748
        _STATISTICS_WRITING_APP: mkvpropedit v66.0.0 ('Josie') 64-bit
        _STATISTICS_WRITING_DATE_UTC: 2025-06-26 16:23:39
        encoder         : Lavc61.19.100 pcm_s16le
frame=  498 fps=0.0 q=-0.0 size=N/A time=00:00:20.77 bitrate=N/A speed=39.9x    frame= 1031 fps=999 q=-0.0 size=N/A time=00:00:43.00 bitrate=N/A speed=41.7x    frame= 1592 fps=1023 q=-0.0 size=N/A time=00:01:06.39 bitrate=N/A speed=42.7x    frame= 2143 fps=1036 q=-0.0 size=N/A time=00:01:29.38 bitrate=N/A speed=43.2x    frame= 2628 fps=1019 q=-0.0 size=N/A time=00:01:49.60 bitrate=N/A speed=42.5x    frame= 3060 fps=985 q=-0.0 size=N/A time=00:02:07.62 bitrate=N/A speed=41.1x    frame= 3500 fps=969 q=-0.0 size=N/A time=00:02:25.97 bitrate=N/A speed=40.4x    frame= 3810 fps=924 q=-0.0 size=N/A time=00:02:38.90 bitrate=N/A speed=38.6x    frame= 4227 fps=910 q=-0.0 size=N/A time=00:02:56.30 bitrate=N/A speed=37.9x    frame= 4749 fps=921 q=-0.0 size=N/A time=00:03:18.07 bitrate=N/A speed=38.4x    frame= 5180 fps=911 q=-0.0 size=N/A time=00:03:36.04 bitrate=N/A speed=  38x    frame= 5655 fps=913 q=-0.0 size=N/A time=00:03:55.86 bitrate=N/A speed=38.1x    frame= 6130 fps=915 q=-0.0 size=N/A time=00:04:15.67 bitrate=N/A speed=38.1x    frame= 6606 fps=914 q=-0.0 size=N/A time=00:04:35.52 bitrate=N/A speed=38.1x    frame= 7052 fps=911 q=-0.0 size=N/A time=00:04:54.12 bitrate=N/A speed=  38x    frame= 7518 fps=912 q=-0.0 size=N/A time=00:05:13.56 bitrate=N/A speed=  38x    frame= 8016 fps=914 q=-0.0 size=N/A time=00:05:34.33 bitrate=N/A speed=38.1x    frame= 8519 fps=918 q=-0.0 size=N/A time=00:05:55.31 bitrate=N/A speed=38.3x    frame= 9058 fps=924 q=-0.0 size=N/A time=00:06:17.79 bitrate=N/A speed=38.5x    frame= 9635 fps=934 q=-0.0 size=N/A time=00:06:41.85 bitrate=N/A speed=38.9x    frame=10158 fps=938 q=-0.0 size=N/A time=00:07:03.67 bitrate=N/A speed=39.1x    frame=10694 fps=942 q=-0.0 size=N/A time=00:07:26.02 bitrate=N/A speed=39.3x    frame=11192 fps=943 q=-0.0 size=N/A time=00:07:46.79 bitrate=N/A speed=39.3x    frame=11609 fps=938 q=-0.0 size=N/A time=00:08:04.19 bitrate=N/A speed=39.1x    frame=12030 fps=932 q=-0.0 size=N/A time=00:08:21.75 bitrate=N/A speed=38.9x    frame=12526 fps=933 q=-0.0 size=N/A time=00:08:42.43 bitrate=N/A speed=38.9x    frame=12994 fps=931 q=-0.0 size=N/A time=00:09:01.95 bitrate=N/A speed=38.9x    frame=13433 fps=928 q=-0.0 size=N/A time=00:09:20.26 bitrate=N/A speed=38.7x    frame=13976 fps=932 q=-0.0 size=N/A time=00:09:42.91 bitrate=N/A speed=38.9x    frame=14471 fps=933 q=-0.0 size=N/A time=00:10:03.56 bitrate=N/A speed=38.9x    frame=15001 fps=936 q=-0.0 size=N/A time=00:10:25.66 bitrate=N/A speed=  39x    frame=15531 fps=938 q=-0.0 size=N/A time=00:10:47.77 bitrate=N/A speed=39.1x    frame=16082 fps=942 q=-0.0 size=N/A time=00:11:10.75 bitrate=N/A speed=39.3x    frame=16597 fps=944 q=-0.0 size=N/A time=00:11:32.23 bitrate=N/A speed=39.4x    frame=17048 fps=942 q=-0.0 size=N/A time=00:11:51.04 bitrate=N/A speed=39.3x    frame=17542 fps=943 q=-0.0 size=N/A time=00:12:11.64 bitrate=N/A speed=39.3x    frame=18037 fps=943 q=-0.0 size=N/A time=00:12:32.29 bitrate=N/A speed=39.3x    frame=18521 fps=943 q=-0.0 size=N/A time=00:12:52.48 bitrate=N/A speed=39.3x    frame=18936 fps=940 q=-0.0 size=N/A time=00:13:09.78 bitrate=N/A speed=39.2x    frame=19401 fps=938 q=-0.0 size=N/A time=00:13:29.18 bitrate=N/A speed=39.1x    frame=19888 fps=939 q=-0.0 size=N/A time=00:13:49.49 bitrate=N/A speed=39.1x    frame=20405 fps=940 q=-0.0 size=N/A time=00:14:11.05 bitrate=N/A speed=39.2x    frame=20960 fps=943 q=-0.0 size=N/A time=00:14:34.20 bitrate=N/A speed=39.3x    frame=21535 fps=947 q=-0.0 size=N/A time=00:14:58.18 bitrate=N/A speed=39.5x    frame=22169 fps=953 q=-0.0 size=N/A time=00:15:24.63 bitrate=N/A speed=39.8x    frame=22673 fps=954 q=-0.0 size=N/A time=00:15:45.65 bitrate=N/A speed=39.8x    frame=23141 fps=953 q=-0.0 size=N/A time=00:16:05.17 bitrate=N/A speed=39.8x    frame=23710 fps=956 q=-0.0 size=N/A time=00:16:28.90 bitrate=N/A speed=39.9x    frame=24199 fps=956 q=-0.0 size=N/A time=00:16:49.29 bitrate=N/A speed=39.9x    frame=24773 fps=959 q=-0.0 size=N/A time=00:17:13.24 bitrate=N/A speed=  40x    frame=25206 fps=957 q=-0.0 size=N/A time=00:17:31.30 bitrate=N/A speed=39.9x    frame=25677 fps=956 q=-0.0 size=N/A time=00:17:50.94 bitrate=N/A speed=39.9x    frame=26153 fps=955 q=-0.0 size=N/A time=00:18:10.79 bitrate=N/A speed=39.8x    frame=26584 fps=953 q=-0.0 size=N/A time=00:18:28.77 bitrate=N/A speed=39.7x    frame=26895 fps=947 q=-0.0 size=N/A time=00:18:41.74 bitrate=N/A speed=39.5x    frame=27357 fps=946 q=-0.0 size=N/A time=00:19:01.01 bitrate=N/A speed=39.4x    frame=27817 fps=945 q=-0.0 size=N/A time=00:19:20.20 bitrate=N/A speed=39.4x    frame=28249 fps=943 q=-0.0 size=N/A time=00:19:38.21 bitrate=N/A speed=39.3x    frame=28723 fps=942 q=-0.0 size=N/A time=00:19:57.98 bitrate=N/A speed=39.3x    frame=29181 fps=942 q=-0.0 size=N/A time=00:20:17.09 bitrate=N/A speed=39.3x    frame=29673 fps=942 q=-0.0 size=N/A time=00:20:37.61 bitrate=N/A speed=39.3x    frame=30197 fps=943 q=-0.0 size=N/A time=00:20:59.46 bitrate=N/A speed=39.3x    frame=30709 fps=944 q=-0.0 size=N/A time=00:21:20.82 bitrate=N/A speed=39.4x    frame=31294 fps=947 q=-0.0 size=N/A time=00:21:45.22 bitrate=N/A speed=39.5x    frame=31870 fps=949 q=-0.0 size=N/A time=00:22:09.24 bitrate=N/A speed=39.6x    frame=32285 fps=947 q=-0.0 size=N/A time=00:22:26.55 bitrate=N/A speed=39.5x    frame=32700 fps=945 q=-0.0 size=N/A time=00:22:43.86 bitrate=N/A speed=39.4x    frame=33082 fps=942 q=-0.0 size=N/A time=00:22:59.79 bitrate=N/A speed=39.3x    frame=33510 fps=941 q=-0.0 size=N/A time=00:23:17.64 bitrate=N/A speed=39.2x    frame=33904 fps=938 q=-0.0 size=N/A time=00:23:34.07 bitrate=N/A speed=39.1x    frame=34404 fps=938 q=-0.0 size=N/A time=00:23:54.93 bitrate=N/A speed=39.1x    frame=34915 fps=939 q=-0.0 size=N/A time=00:24:16.24 bitrate=N/A speed=39.2x    [Parsed_ssim_10 @ 000002b5aa8eca40] SSIM Y:0.989810 (19.918247) U:0.994393 (22.512989) V:0.994178 (22.349574) All:0.991302 (20.605778)
[out#0/null @ 000002b59f5c1840] video:15144KiB audio:275644KiB subtitle:0KiB other streams:0KiB global headers:0KiB muxing overhead: unknown
frame=35245 fps=941 q=-0.0 Lsize=N/A time=00:24:30.01 bitrate=N/A speed=39.2x    
